<svg xmlns:xlink="http://www.w3.org/1999/xlink" width="34" xmlns="http://www.w3.org/2000/svg" height="33" id="screenshot-f8730104-f0fd-8053-8003-b1b691709b31" viewBox="0 0 34 33" style="-webkit-print-color-adjust: exact;" fill="none" version="1.1"><g id="shape-f8730104-f0fd-8053-8003-b1b691709b31" height="48" width="48" rx="0" ry="0" style="fill: rgb(0, 0, 0);"><g id="shape-f8730104-f0fd-8053-8003-b1b6917196cc"><g class="fills" id="fills-f8730104-f0fd-8053-8003-b1b6917196cc"><path rx="0" ry="0" d="M6.375,28.875C5.808,28.875,5.313,28.669,4.888,28.256C4.463,27.844,4.250,27.363,4.250,26.813L4.250,6.188C4.250,5.637,4.463,5.156,4.888,4.744C5.313,4.331,5.808,4.125,6.375,4.125L16.681,4.125L16.681,6.188L6.375,6.188L6.375,26.813L16.681,26.813L16.681,28.875L6.375,28.875ZZM23.588,22.516L22.065,21.037L25.677,17.531L13.281,17.531L13.281,15.469L25.606,15.469L21.994,11.963L23.517,10.484L29.750,16.534L23.588,22.516ZZ"/></g></g></g></svg>